# xmcd
#
# Track frame offsets:
#  150
#  19401
#  37174
#  97086
#  120386
#
# Disc length: 1793 seconds
#
# Revision: 0
# Processed by: cddbd v1.5.1PL0 Copyright (c) Steve Scherf et al.
# Submitted via: Collectorz.com Music Collector 6.9
#
DISCID=3f06ff05
DTITLE=steve earle - Mccabe's Guitar Shop - 19th Dec 1987- Early Show - Disc 2
DYEAR=1987
DGENRE=
TTITLE0=Even When I'm Blue
TTITLE1=I Ain't Ever Satisfied
TTITLE2=No. 29
TTITLE3=The Devil's Right Hand
TTITLE4=Guitar Town
EXTD=
EXTT0=
EXTT1=
EXTT2=
EXTT3=
EXTT4=
PLAYORDER=
